<svg xmlns="http://www.w3.org/2000/svg" viewBox="0 0 1920 1920.24"><defs><style>.cls-1,.cls-10,.cls-11,.cls-12,.cls-13,.cls-14,.cls-15,.cls-16,.cls-17,.cls-2,.cls-3,.cls-4,.cls-5,.cls-6,.cls-7,.cls-8,.cls-9{fill:none;stroke-linejoin:round;}.cls-1,.cls-17,.cls-2,.cls-3,.cls-4,.cls-5,.cls-6,.cls-7,.cls-8{stroke:#000;}.cls-1,.cls-2,.cls-3,.cls-4,.cls-5,.cls-6,.cls-7,.cls-8{stroke-linecap:round;stroke-width:0.5px;}.cls-1{stroke-dasharray:6 6;}.cls-2{stroke-dasharray:6 6;}.cls-3{stroke-dasharray:6.01 6.01;}.cls-4{stroke-dasharray:6.01 6.01;}.cls-5{stroke-dasharray:6.01 6.01;}.cls-6{stroke-dasharray:6.02 6.02;}.cls-7{stroke-dasharray:6.02 6.02;}.cls-8{stroke-dasharray:6 6;}.cls-9{stroke:#5fc6ca;}.cls-10,.cls-11,.cls-12,.cls-13,.cls-14,.cls-15,.cls-16,.cls-9{stroke-width:3px;}.cls-10{stroke:#ee3824;}.cls-11{stroke:#a8d057;}.cls-12{stroke:#4a68b1;}.cls-13{stroke:#7a57a4;}.cls-14{stroke:#f89840;}.cls-15{stroke:#9b3a3b;}.cls-16{stroke:#fbdc43;}.cls-17{stroke-width:2px;}.cls-18,.cls-22{font-size:24px;}.cls-18{font-family:BebasNeueBold, Bebas Neue;}.cls-19{letter-spacing:-0.01em;}.cls-20{font-size:21.46px;}.cls-20,.cls-21,.cls-22,.cls-23,.cls-24,.cls-25,.cls-26,.cls-27{font-family:BebasNeueBook, Bebas Neue;}.cls-21{font-size:22.2px;}.cls-23{font-size:24.11px;}.cls-24{font-size:24.3px;}.cls-25{font-size:24.53px;}.cls-26{font-size:24.96px;}.cls-27{font-size:25.5px;}</style></defs><title>Artboard 2</title><g id="Default"><path class="cls-1" d="M1629.2,969.61a666.92,666.92,0,1,0-195.34,471.59A666,666,0,0,0,1629.2,969.61Z"/><path class="cls-2" d="M1556.71,969.61a594.41,594.41,0,1,0-174.11,420.33A593.6,593.6,0,0,0,1556.71,969.61Z"/><circle class="cls-3" cx="962.28" cy="969.61" r="521.94" transform="translate(-403.77 964.43) rotate(-45)"/><circle class="cls-4" cx="962.28" cy="969.61" r="449.45" transform="translate(-403.77 964.43) rotate(-45)"/><circle class="cls-5" cx="962.28" cy="969.61" r="376.95" transform="translate(-403.77 964.43) rotate(-45)"/><circle class="cls-6" cx="962.28" cy="969.61" r="304.46" transform="translate(-403.77 964.43) rotate(-45)"/><circle class="cls-7" cx="962.28" cy="969.61" r="231.97" transform="translate(-403.77 964.43) rotate(-45)"/><path class="cls-8" d="M1701.69,969.61a739.42,739.42,0,1,0-216.58,522.85A738.38,738.38,0,0,0,1701.69,969.61Z"/><line class="cls-9" x1="1595.26" y1="1545.3" x2="1618.08" y2="1545.3"/><line class="cls-10" x1="1595.26" y1="1569.65" x2="1618.08" y2="1569.65"/><line class="cls-11" x1="1595.26" y1="1594" x2="1618.08" y2="1594"/><line class="cls-12" x1="1595.26" y1="1618.36" x2="1618.08" y2="1618.36"/><line class="cls-13" x1="1595.26" y1="1642.71" x2="1618.08" y2="1642.71"/><line class="cls-14" x1="1595.26" y1="1667.06" x2="1618.08" y2="1667.06"/><line class="cls-15" x1="1595.26" y1="1691.41" x2="1618.08" y2="1691.41"/><line class="cls-16" x1="1595.26" y1="1715.77" x2="1618.08" y2="1715.77"/></g><g id="Mid_Roll" data-name="Mid Roll"><line class="cls-17" x1="1065.51" y1="1036.91" x2="1059.44" y2="1032.95"/><line class="cls-17" x1="1084.23" y1="951.87" x2="1077.06" y2="952.91"/><line class="cls-17" x1="1075.92" y1="921.93" x2="1069.24" y2="924.74"/><line class="cls-17" x1="1072.19" y1="913.86" x2="1065.72" y2="917.14"/><line class="cls-17" x1="1070.1" y1="909.92" x2="1063.76" y2="913.43"/><line class="cls-17" x1="1065.51" y1="902.3" x2="1059.44" y2="906.26"/><line class="cls-17" x1="1063.02" y1="898.62" x2="1057.09" y2="902.79"/><line class="cls-17" x1="1060.39" y1="895.03" x2="1054.62" y2="899.41"/><line class="cls-17" x1="1057.63" y1="891.53" x2="1052.02" y2="896.13"/><line class="cls-17" x1="1051.75" y1="884.86" x2="1046.49" y2="889.84"/><line class="cls-17" x1="1042.06" y1="875.68" x2="1037.37" y2="881.2"/><line class="cls-17" x1="1038.62" y1="872.86" x2="1034.13" y2="878.55"/><line class="cls-17" x1="1023.9" y1="862.88" x2="1020.27" y2="869.16"/><line class="cls-17" x1="1012" y1="856.84" x2="1009.07" y2="863.48"/><line class="cls-17" x1="1007.9" y1="855.12" x2="1005.21" y2="861.86"/><line class="cls-17" x1="1003.73" y1="853.55" x2="1001.29" y2="860.38"/><line class="cls-17" x1="999.52" y1="852.13" x2="997.33" y2="859.04"/><line class="cls-17" x1="986.6" y1="848.79" x2="985.17" y2="855.9"/><line class="cls-17" x1="968.95" y1="846.55" x2="968.56" y2="853.79"/><line class="cls-17" x1="964.51" y1="846.39" x2="964.38" y2="853.64"/><line class="cls-17" x1="955.61" y1="846.55" x2="956" y2="853.79"/><line class="cls-17" x1="951.17" y1="846.87" x2="951.82" y2="854.09"/><line class="cls-17" x1="942.34" y1="847.99" x2="943.52" y2="855.15"/><line class="cls-17" x1="929.31" y1="850.86" x2="931.25" y2="857.85"/><line class="cls-17" x1="925.05" y1="852.13" x2="927.24" y2="859.04"/><line class="cls-17" x1="920.83" y1="853.55" x2="923.27" y2="860.38"/><line class="cls-17" x1="908.53" y1="858.71" x2="911.69" y2="865.24"/><line class="cls-17" x1="904.56" y1="860.73" x2="907.95" y2="867.13"/><line class="cls-17" x1="900.66" y1="862.88" x2="904.29" y2="869.16"/><line class="cls-17" x1="893.12" y1="867.6" x2="897.19" y2="873.61"/><line class="cls-17" x1="889.49" y1="870.17" x2="893.77" y2="876.02"/><line class="cls-17" x1="861.55" y1="898.62" x2="867.47" y2="902.79"/><line class="cls-17" x1="859.05" y1="902.3" x2="865.12" y2="906.26"/><line class="cls-17" x1="856.69" y1="906.07" x2="862.9" y2="909.81"/><line class="cls-17" x1="850.44" y1="917.86" x2="857.02" y2="920.9"/><line class="cls-17" x1="848.64" y1="921.93" x2="855.33" y2="924.74"/><line class="cls-17" x1="845.5" y1="930.26" x2="852.37" y2="932.57"/><line class="cls-17" x1="841.93" y1="943.11" x2="849.01" y2="944.67"/><line class="cls-17" x1="839.37" y1="960.71" x2="846.6" y2="961.24"/><line class="cls-17" x1="839.13" y1="965.16" x2="846.37" y2="965.42"/><line class="cls-17" x1="839.05" y1="969.61" x2="846.3" y2="969.61"/><line class="cls-17" x1="842.96" y1="1000.42" x2="849.98" y2="998.61"/><line class="cls-17" x1="844.15" y1="1004.71" x2="851.1" y2="1002.65"/><line class="cls-17" x1="845.5" y1="1008.95" x2="852.37" y2="1006.64"/><line class="cls-17" x1="852.38" y1="1025.35" x2="858.84" y2="1022.08"/><line class="cls-17" x1="854.46" y1="1029.29" x2="860.8" y2="1025.78"/><line class="cls-17" x1="856.69" y1="1033.14" x2="862.9" y2="1029.4"/><line class="cls-17" x1="904.56" y1="1078.49" x2="907.95" y2="1072.08"/><line class="cls-17" x1="908.53" y1="1080.5" x2="911.69" y2="1073.97"/><line class="cls-17" x1="920.83" y1="1085.66" x2="923.27" y2="1078.83"/><line class="cls-17" x1="925.05" y1="1087.08" x2="927.24" y2="1080.17"/><line class="cls-17" x1="929.31" y1="1088.35" x2="931.25" y2="1081.36"/><line class="cls-17" x1="933.62" y1="1089.46" x2="935.31" y2="1082.41"/><line class="cls-17" x1="942.34" y1="1091.22" x2="943.52" y2="1084.06"/><line class="cls-17" x1="946.75" y1="1091.86" x2="947.66" y2="1084.67"/><line class="cls-17" x1="951.17" y1="1092.34" x2="951.82" y2="1085.12"/><line class="cls-17" x1="982.22" y1="1091.22" x2="981.05" y2="1084.06"/><line class="cls-17" x1="986.6" y1="1090.42" x2="985.17" y2="1083.31"/><line class="cls-17" x1="990.94" y1="1089.46" x2="989.26" y2="1082.41"/><line class="cls-17" x1="1003.73" y1="1085.66" x2="1001.29" y2="1078.83"/><line class="cls-17" x1="1007.9" y1="1084.09" x2="1005.21" y2="1077.35"/><line class="cls-17" x1="1016.04" y1="1080.5" x2="1012.88" y2="1073.97"/><line class="cls-17" x1="1038.62" y1="1066.35" x2="1034.13" y2="1060.66"/><line class="cls-17" x1="1045.4" y1="1060.59" x2="1040.51" y2="1055.24"/><line class="cls-17" x1="1051.75" y1="1054.35" x2="1046.49" y2="1049.37"/><line class="cls-17" x1="1054.75" y1="1051.07" x2="1049.31" y2="1046.28"/><line class="cls-17" x1="1057.63" y1="1047.68" x2="1052.02" y2="1043.08"/><line class="cls-17" x1="1060.39" y1="1044.18" x2="1054.62" y2="1039.8"/><line class="cls-17" x1="1067.88" y1="1033.14" x2="1061.67" y2="1029.4"/><line class="cls-17" x1="1070.1" y1="1029.29" x2="1063.76" y2="1025.78"/><line class="cls-17" x1="1074.13" y1="1021.35" x2="1067.55" y2="1018.31"/><line class="cls-17" x1="1075.92" y1="1017.28" x2="1069.24" y2="1014.47"/><line class="cls-17" x1="1077.57" y1="1013.15" x2="1070.79" y2="1010.58"/><line class="cls-17" x1="1079.07" y1="1008.95" x2="1072.2" y2="1006.64"/><line class="cls-17" x1="1080.41" y1="1004.71" x2="1073.46" y2="1002.65"/><line class="cls-17" x1="1082.64" y1="996.1" x2="1075.56" y2="994.54"/><line class="cls-17" x1="1085.44" y1="974.05" x2="1078.19" y2="973.79"/><line class="cls-17" x1="1063.02" y1="1040.59" x2="1057.09" y2="1036.42"/></g><g id="Skip"><line class="cls-17" x1="849.69" y1="890.27" x2="855.62" y2="894.44"/><line class="cls-17" x1="852.63" y1="886.25" x2="858.4" y2="890.64"/><line class="cls-17" x1="855.71" y1="882.35" x2="861.32" y2="886.94"/><line class="cls-17" x1="858.93" y1="878.56" x2="864.37" y2="883.35"/><line class="cls-17" x1="862.29" y1="874.89" x2="867.55" y2="879.87"/><line class="cls-17" x1="865.77" y1="871.34" x2="870.85" y2="876.51"/><line class="cls-17" x1="869.38" y1="867.92" x2="874.27" y2="873.27"/><line class="cls-17" x1="873.11" y1="864.63" x2="877.81" y2="870.16"/><line class="cls-17" x1="876.96" y1="861.48" x2="881.45" y2="867.17"/><line class="cls-17" x1="880.92" y1="858.47" x2="885.2" y2="864.32"/><line class="cls-17" x1="884.99" y1="855.6" x2="889.06" y2="861.6"/><line class="cls-17" x1="889.15" y1="852.89" x2="893" y2="859.03"/><line class="cls-17" x1="893.41" y1="850.32" x2="897.04" y2="856.6"/><line class="cls-17" x1="897.77" y1="847.92" x2="901.16" y2="854.32"/><line class="cls-17" x1="902.2" y1="845.67" x2="905.36" y2="852.19"/><line class="cls-17" x1="906.71" y1="843.58" x2="909.64" y2="850.21"/><line class="cls-17" x1="911.3" y1="841.65" x2="913.98" y2="848.39"/><line class="cls-17" x1="915.95" y1="839.9" x2="918.39" y2="846.72"/><line class="cls-17" x1="920.67" y1="838.31" x2="922.86" y2="845.22"/><line class="cls-17" x1="925.43" y1="836.89" x2="927.37" y2="843.88"/><line class="cls-17" x1="930.25" y1="835.65" x2="931.94" y2="842.7"/><line class="cls-17" x1="940" y1="833.69" x2="941.17" y2="840.84"/><line class="cls-17" x1="989.46" y1="1104.63" x2="988.03" y2="1097.52"/><line class="cls-17" x1="949.86" y1="832.43" x2="950.52" y2="839.65"/><line class="cls-17" x1="954.82" y1="832.07" x2="955.22" y2="839.31"/><line class="cls-17" x1="844.26" y1="898.6" x2="850.47" y2="902.33"/><line class="cls-17" x1="964.77" y1="831.89" x2="964.64" y2="839.14"/><line class="cls-17" x1="969.74" y1="832.07" x2="969.35" y2="839.31"/><line class="cls-17" x1="974.7" y1="832.43" x2="974.04" y2="839.65"/><line class="cls-17" x1="989.46" y1="834.58" x2="988.03" y2="841.69"/><line class="cls-17" x1="994.31" y1="835.65" x2="992.63" y2="842.7"/><line class="cls-17" x1="944.92" y1="832.97" x2="945.83" y2="840.16"/><line class="cls-17" x1="1003.9" y1="838.31" x2="1001.71" y2="845.22"/><line class="cls-17" x1="1008.61" y1="839.9" x2="1006.17" y2="846.72"/><line class="cls-17" x1="1013.26" y1="841.65" x2="1010.58" y2="848.39"/><line class="cls-17" x1="1017.85" y1="843.58" x2="1014.92" y2="850.21"/><line class="cls-17" x1="1026.8" y1="847.92" x2="1023.4" y2="854.32"/><line class="cls-17" x1="1031.15" y1="850.32" x2="1027.52" y2="856.6"/><line class="cls-17" x1="1035.41" y1="852.89" x2="1031.56" y2="859.03"/><line class="cls-17" x1="1039.58" y1="855.6" x2="1035.51" y2="861.6"/><line class="cls-17" x1="1043.64" y1="858.47" x2="1039.36" y2="864.32"/><line class="cls-17" x1="1047.6" y1="861.48" x2="1043.11" y2="867.17"/><line class="cls-17" x1="1051.45" y1="864.63" x2="1046.76" y2="870.16"/><line class="cls-17" x1="1055.18" y1="867.92" x2="1050.29" y2="873.27"/><line class="cls-17" x1="1058.79" y1="871.34" x2="1053.71" y2="876.51"/><line class="cls-17" x1="1065.63" y1="878.56" x2="1060.19" y2="883.35"/><line class="cls-17" x1="1082.79" y1="902.9" x2="1076.44" y2="906.41"/><line class="cls-17" x1="1085.12" y1="907.3" x2="1078.65" y2="910.58"/><line class="cls-17" x1="1098.58" y1="949.78" x2="1091.41" y2="950.82"/><line class="cls-17" x1="1099.21" y1="954.71" x2="1092" y2="955.5"/><line class="cls-17" x1="1099.66" y1="959.67" x2="1092.43" y2="960.19"/><line class="cls-17" x1="1099.92" y1="964.63" x2="1092.68" y2="964.89"/><line class="cls-17" x1="846.9" y1="894.38" x2="852.98" y2="898.34"/><line class="cls-17" x1="841.78" y1="902.9" x2="848.12" y2="906.41"/><line class="cls-17" x1="839.45" y1="907.3" x2="845.91" y2="910.58"/><line class="cls-17" x1="837.28" y1="911.77" x2="843.86" y2="914.82"/><line class="cls-17" x1="835.27" y1="916.32" x2="841.96" y2="919.13"/><line class="cls-17" x1="833.43" y1="920.94" x2="840.21" y2="923.5"/><line class="cls-17" x1="831.76" y1="925.63" x2="838.63" y2="927.94"/><line class="cls-17" x1="984.56" y1="1105.52" x2="983.39" y2="1098.37"/><line class="cls-17" x1="828.92" y1="935.16" x2="835.94" y2="936.97"/><line class="cls-17" x1="827.77" y1="940" x2="834.85" y2="941.56"/><line class="cls-17" x1="826.79" y1="944.87" x2="833.92" y2="946.17"/><line class="cls-17" x1="825.36" y1="954.71" x2="832.56" y2="955.5"/><line class="cls-17" x1="825.98" y1="949.78" x2="833.16" y2="950.82"/><line class="cls-17" x1="824.91" y1="959.67" x2="832.14" y2="960.19"/><line class="cls-17" x1="824.64" y1="964.63" x2="831.88" y2="964.89"/><line class="cls-17" x1="824.55" y1="969.61" x2="831.8" y2="969.61"/><line class="cls-17" x1="824.91" y1="979.54" x2="832.14" y2="979.02"/><line class="cls-17" x1="824.64" y1="974.58" x2="831.88" y2="974.32"/><line class="cls-17" x1="825.36" y1="984.5" x2="832.56" y2="983.71"/><line class="cls-17" x1="825.98" y1="989.43" x2="833.16" y2="988.39"/><line class="cls-17" x1="827.77" y1="999.21" x2="834.85" y2="997.66"/><line class="cls-17" x1="828.92" y1="1004.05" x2="835.94" y2="1002.24"/><line class="cls-17" x1="830.26" y1="1008.84" x2="837.2" y2="1006.78"/><line class="cls-17" x1="831.76" y1="1013.58" x2="838.63" y2="1011.27"/><line class="cls-17" x1="833.43" y1="1018.27" x2="840.21" y2="1015.71"/><line class="cls-17" x1="835.27" y1="1022.89" x2="841.96" y2="1020.08"/><line class="cls-17" x1="837.28" y1="1027.44" x2="843.86" y2="1024.39"/><line class="cls-17" x1="839.45" y1="1031.91" x2="845.91" y2="1028.63"/><line class="cls-17" x1="841.78" y1="1036.31" x2="848.12" y2="1032.8"/><line class="cls-17" x1="844.26" y1="1040.61" x2="850.47" y2="1036.88"/><line class="cls-17" x1="852.63" y1="1052.96" x2="858.4" y2="1048.57"/><line class="cls-17" x1="855.71" y1="1056.86" x2="861.32" y2="1052.27"/><line class="cls-17" x1="858.93" y1="1060.65" x2="864.37" y2="1055.86"/><line class="cls-17" x1="873.11" y1="1074.58" x2="877.81" y2="1069.06"/><line class="cls-17" x1="876.96" y1="1077.73" x2="881.45" y2="1072.04"/><line class="cls-17" x1="884.99" y1="1083.61" x2="889.06" y2="1077.61"/><line class="cls-17" x1="893.41" y1="1088.89" x2="897.04" y2="1082.61"/><line class="cls-17" x1="897.77" y1="1091.29" x2="901.16" y2="1084.89"/><line class="cls-17" x1="902.2" y1="1093.54" x2="905.36" y2="1087.02"/><line class="cls-17" x1="906.71" y1="1095.63" x2="909.64" y2="1089"/><line class="cls-17" x1="911.3" y1="1097.56" x2="913.98" y2="1090.82"/><line class="cls-17" x1="915.95" y1="1099.31" x2="918.39" y2="1092.49"/><line class="cls-17" x1="920.67" y1="1100.9" x2="922.86" y2="1093.99"/><line class="cls-17" x1="925.43" y1="1102.32" x2="927.37" y2="1095.33"/><line class="cls-17" x1="930.25" y1="1103.56" x2="931.94" y2="1096.51"/><line class="cls-17" x1="935.11" y1="1104.63" x2="936.54" y2="1097.52"/><line class="cls-17" x1="940" y1="1105.52" x2="941.17" y2="1098.37"/><line class="cls-17" x1="944.92" y1="1106.24" x2="945.83" y2="1099.05"/><line class="cls-17" x1="949.86" y1="1106.78" x2="950.52" y2="1099.56"/><line class="cls-17" x1="954.82" y1="1107.14" x2="955.22" y2="1099.9"/><line class="cls-17" x1="959.79" y1="1107.32" x2="959.93" y2="1100.07"/><line class="cls-17" x1="964.77" y1="1107.32" x2="964.64" y2="1100.07"/><line class="cls-17" x1="969.74" y1="1107.14" x2="969.35" y2="1099.9"/><line class="cls-17" x1="959.79" y1="831.89" x2="959.93" y2="839.14"/><line class="cls-17" x1="974.7" y1="1106.78" x2="974.04" y2="1099.56"/><line class="cls-17" x1="994.31" y1="1103.56" x2="992.63" y2="1096.51"/><line class="cls-17" x1="999.13" y1="1102.32" x2="997.19" y2="1095.33"/><line class="cls-17" x1="1003.9" y1="1100.9" x2="1001.71" y2="1093.99"/><line class="cls-17" x1="1008.61" y1="1099.31" x2="1006.17" y2="1092.49"/><line class="cls-17" x1="1013.26" y1="1097.56" x2="1010.58" y2="1090.82"/><line class="cls-17" x1="1017.85" y1="1095.63" x2="1014.92" y2="1089"/><line class="cls-17" x1="1022.36" y1="1093.54" x2="1019.2" y2="1087.02"/><line class="cls-17" x1="1026.8" y1="1091.29" x2="1023.4" y2="1084.89"/><line class="cls-17" x1="1035.41" y1="1086.32" x2="1031.56" y2="1080.18"/><line class="cls-17" x1="1039.58" y1="1083.61" x2="1035.51" y2="1077.61"/><line class="cls-17" x1="1043.64" y1="1080.74" x2="1039.36" y2="1074.89"/><line class="cls-17" x1="1047.6" y1="1077.73" x2="1043.11" y2="1072.04"/><line class="cls-17" x1="1051.45" y1="1074.58" x2="1046.76" y2="1069.06"/><line class="cls-17" x1="1055.18" y1="1071.29" x2="1050.29" y2="1065.94"/><line class="cls-17" x1="1058.79" y1="1067.87" x2="1053.71" y2="1062.7"/><line class="cls-17" x1="1062.28" y1="1064.32" x2="1057.01" y2="1059.34"/><line class="cls-17" x1="1065.63" y1="1060.65" x2="1060.19" y2="1055.86"/><line class="cls-17" x1="1068.85" y1="1056.86" x2="1063.24" y2="1052.27"/><line class="cls-17" x1="1071.93" y1="1052.96" x2="1066.16" y2="1048.57"/><line class="cls-17" x1="1074.87" y1="1048.94" x2="1068.94" y2="1044.77"/><line class="cls-17" x1="1077.66" y1="1044.83" x2="1071.59" y2="1040.87"/><line class="cls-17" x1="1080.3" y1="1040.61" x2="1074.09" y2="1036.88"/><line class="cls-17" x1="1082.79" y1="1036.31" x2="1076.44" y2="1032.8"/><line class="cls-17" x1="1085.12" y1="1031.91" x2="1078.65" y2="1028.63"/><line class="cls-17" x1="1087.28" y1="1027.44" x2="1080.71" y2="1024.39"/><line class="cls-17" x1="1089.29" y1="1022.89" x2="1082.61" y2="1020.08"/><line class="cls-17" x1="1091.13" y1="1018.27" x2="1084.35" y2="1015.71"/><line class="cls-17" x1="1092.81" y1="1013.58" x2="1085.94" y2="1011.27"/><line class="cls-17" x1="1094.31" y1="1008.84" x2="1087.36" y2="1006.78"/><line class="cls-17" x1="1095.64" y1="1004.05" x2="1088.62" y2="1002.24"/><line class="cls-17" x1="1096.79" y1="999.21" x2="1089.72" y2="997.66"/><line class="cls-17" x1="1097.78" y1="994.34" x2="1090.65" y2="993.04"/><line class="cls-17" x1="1098.58" y1="989.43" x2="1091.41" y2="988.39"/><line class="cls-17" x1="1099.21" y1="984.5" x2="1092" y2="983.71"/><line class="cls-17" x1="1099.66" y1="979.54" x2="1092.43" y2="979.02"/><line class="cls-17" x1="1099.92" y1="974.58" x2="1092.68" y2="974.32"/><line class="cls-17" x1="830.26" y1="930.37" x2="837.2" y2="932.43"/><line class="cls-17" x1="999.13" y1="836.89" x2="997.19" y2="843.88"/></g><g id="Jingle"><line class="cls-16" x1="980.56" y1="825.78" x2="983.66" y2="801.33"/></g><g id="Testimonial"><line class="cls-15" x1="1095.98" y1="913.52" x2="1176.19" y2="879.87"/><line class="cls-15" x1="1074.46" y1="877.76" x2="1141.76" y2="822.65"/><line class="cls-15" x1="1039.26" y1="846.75" x2="1085.44" y2="773.03"/><line class="cls-15" x1="850.1" y1="877.76" x2="726.71" y2="776.72"/><line class="cls-15" x1="838.05" y1="894.86" x2="763.51" y2="850.01"/><line class="cls-15" x1="1056.14" y1="1080.11" x2="1135.92" y2="1174.03"/><line class="cls-15" x1="1089.13" y1="1039.82" x2="1196.95" y2="1099.5"/><line class="cls-15" x1="1091.58" y1="1035.19" x2="1195.02" y2="1087.66"/><line class="cls-15" x1="1097.91" y1="1020.83" x2="1206.42" y2="1061.81"/><line class="cls-15" x1="1099.67" y1="1015.9" x2="1168.37" y2="1039.04"/><line class="cls-15" x1="1101.26" y1="1010.91" x2="1184.64" y2="1035.69"/><line class="cls-15" x1="1093.86" y1="908.73" x2="1238.61" y2="841.76"/></g><g id="Tutorial"><line class="cls-14" x1="1097.91" y1="918.38" x2="1314.93" y2="836.42"/><line class="cls-14" x1="1077.7" y1="881.87" x2="1118.1" y2="851.16"/><line class="cls-14" x1="1060.07" y1="862.57" x2="1216.53" y2="691.3"/><line class="cls-14" x1="818.15" y1="953.93" x2="767.7" y2="948.44"/><line class="cls-14" x1="1089.13" y1="899.39" x2="1292.08" y2="787.05"/></g><g id="Info"><line class="cls-13" x1="1102.66" y1="933.35" x2="1151.79" y2="920.66"/><line class="cls-13" x1="1083.73" y1="890.42" x2="1156.6" y2="842.91"/><line class="cls-13" x1="1080.79" y1="886.09" x2="1151.9" y2="835.98"/><line class="cls-13" x1="1067.54" y1="869.9" x2="1104.38" y2="835"/><line class="cls-13" x1="1056.14" y1="859.11" x2="1206.32" y2="682.3"/><line class="cls-13" x1="1015.94" y1="834.92" x2="1034.73" y2="787.78"/><line class="cls-13" x1="1011.05" y1="833.07" x2="1040.31" y2="751.15"/><line class="cls-13" x1="1001.07" y1="829.91" x2="1014.64" y2="781.01"/><line class="cls-13" x1="964.9" y1="824.65" x2="965.82" y2="773.91"/><line class="cls-13" x1="954.43" y1="824.84" x2="951.69" y2="774.17"/><line class="cls-13" x1="949.21" y1="825.21" x2="879.28" y2="52.71"/><line class="cls-13" x1="923.49" y1="829.91" x2="909.92" y2="781.01"/><line class="cls-13" x1="885.3" y1="846.75" x2="839.12" y2="773.03"/><line class="cls-13" x1="857.02" y1="869.9" x2="793.87" y2="810.08"/><line class="cls-13" x1="832.98" y1="904.02" x2="787.73" y2="881.06"/><line class="cls-13" x1="830.7" y1="908.73" x2="784.64" y2="887.42"/><line class="cls-13" x1="828.59" y1="913.52" x2="748.37" y2="879.87"/><line class="cls-13" x1="823.31" y1="928.3" x2="739.92" y2="903.52"/><line class="cls-13" x1="821.91" y1="933.35" x2="772.77" y2="920.66"/><line class="cls-13" x1="817.3" y1="969.61" x2="730.31" y2="969.61"/><line class="cls-13" x1="818.81" y1="990.47" x2="768.59" y2="997.78"/><line class="cls-13" x1="824.89" y1="1015.9" x2="776.8" y2="1032.1"/><line class="cls-13" x1="830.7" y1="1030.48" x2="751.75" y2="1067.01"/><line class="cls-13" x1="832.98" y1="1035.19" x2="787.73" y2="1058.15"/><line class="cls-13" x1="889.79" y1="1095.16" x2="846.3" y2="1170.5"/><line class="cls-13" x1="903.79" y1="1102.27" x2="737.09" y2="1480.35"/><line class="cls-13" x1="954.43" y1="1114.38" x2="949.72" y2="1201.24"/><line class="cls-13" x1="970.13" y1="1114.38" x2="986.61" y2="1418.39"/><line class="cls-13" x1="990.89" y1="1111.74" x2="1008.05" y2="1197.02"/><line class="cls-13" x1="1030.19" y1="1097.7" x2="1098.1" y2="1225.79"/><line class="cls-13" x1="1047.92" y1="1086.59" x2="1292" y2="1420"/><line class="cls-13" x1="1063.87" y1="1073.04" x2="1099.43" y2="1109.25"/><line class="cls-13" x1="1074.46" y1="1061.45" x2="1253.94" y2="1208.41"/><line class="cls-13" x1="1080.79" y1="1053.12" x2="1507.44" y2="1353.78"/><line class="cls-13" x1="1093.86" y1="1030.48" x2="1139.92" y2="1051.79"/><line class="cls-13" x1="1095.98" y1="1025.69" x2="1142.77" y2="1045.32"/><line class="cls-13" x1="1099.67" y1="923.31" x2="1127.15" y2="914.05"/></g><g id="Trailer"><line class="cls-12" x1="894.37" y1="841.51" x2="802.69" y2="668.58"/><line class="cls-12" x1="1106.41" y1="953.93" x2="1156.86" y2="948.44"/><line class="cls-12" x1="1105.75" y1="948.74" x2="1155.97" y2="941.43"/><line class="cls-12" x1="1043.64" y1="849.6" x2="1112.8" y2="747.6"/><line class="cls-12" x1="1034.77" y1="844.05" x2="1078.27" y2="768.71"/><line class="cls-12" x1="1006.09" y1="831.4" x2="1024.92" y2="771.97"/><line class="cls-12" x1="938.83" y1="826.53" x2="930.38" y2="775.03"/><line class="cls-12" x1="918.48" y1="831.4" x2="870.29" y2="679.37"/><line class="cls-12" x1="864.49" y1="862.57" x2="781.37" y2="771.58"/><line class="cls-12" x1="846.86" y1="881.87" x2="806.47" y2="851.16"/><line class="cls-12" x1="843.77" y1="886.09" x2="802.29" y2="856.86"/><line class="cls-12" x1="840.83" y1="890.42" x2="767.96" y2="842.91"/><line class="cls-12" x1="835.43" y1="899.39" x2="791.04" y2="874.82"/><line class="cls-12" x1="817.68" y1="959.14" x2="745.37" y2="953.91"/><line class="cls-12" x1="817.68" y1="980.07" x2="755.5" y2="984.57"/><line class="cls-12" x1="820.69" y1="1000.77" x2="735.73" y2="1019.47"/><line class="cls-12" x1="821.91" y1="1005.86" x2="737.68" y2="1027.62"/><line class="cls-12" x1="835.43" y1="1039.82" x2="759.33" y2="1081.95"/><line class="cls-12" x1="838.05" y1="1044.35" x2="577.17" y2="1201.32"/><line class="cls-12" x1="846.86" y1="1057.35" x2="719.9" y2="1153.86"/><line class="cls-12" x1="850.1" y1="1061.45" x2="810.84" y2="1093.6"/><line class="cls-12" x1="864.49" y1="1076.65" x2="830.27" y2="1114.11"/><line class="cls-12" x1="872.47" y1="1083.42" x2="654.24" y2="1360"/><line class="cls-12" x1="876.64" y1="1086.59" x2="846.67" y2="1127.54"/><line class="cls-12" x1="880.92" y1="1089.61" x2="803.63" y2="1203.61"/><line class="cls-12" x1="894.37" y1="1097.7" x2="870.6" y2="1142.53"/><line class="cls-12" x1="899.04" y1="1100.07" x2="782.04" y2="1341.42"/><line class="cls-12" x1="913.52" y1="1106.14" x2="737.96" y2="1597.67"/><line class="cls-12" x1="923.49" y1="1109.3" x2="909.92" y2="1158.2"/><line class="cls-12" x1="938.83" y1="1112.68" x2="866.11" y2="1556.2"/><line class="cls-12" x1="944.01" y1="1113.43" x2="937.61" y2="1163.77"/><line class="cls-12" x1="985.74" y1="1112.68" x2="993.95" y2="1162.75"/><line class="cls-12" x1="1006.09" y1="1107.81" x2="1065.22" y2="1294.39"/><line class="cls-12" x1="1011.05" y1="1106.14" x2="1076.88" y2="1290.46"/><line class="cls-12" x1="1015.94" y1="1104.29" x2="1088.39" y2="1286.12"/><line class="cls-12" x1="1020.77" y1="1102.27" x2="1055.87" y2="1181.86"/><line class="cls-12" x1="1025.52" y1="1100.07" x2="1063.47" y2="1178.34"/><line class="cls-12" x1="1039.26" y1="1092.46" x2="1066.2" y2="1135.47"/><line class="cls-12" x1="1043.64" y1="1089.61" x2="1112.8" y2="1191.61"/><line class="cls-12" x1="1052.09" y1="1083.42" x2="1173.33" y2="1237.07"/><line class="cls-12" x1="1071.07" y1="1065.44" x2="1190.74" y2="1170.87"/><line class="cls-12" x1="1077.7" y1="1057.35" x2="1118.1" y2="1088.05"/><line class="cls-12" x1="1086.51" y1="1044.35" x2="1161.05" y2="1089.2"/><line class="cls-12" x1="1104.91" y1="995.64" x2="1404.42" y2="1050.31"/><line class="cls-12" x1="913.52" y1="833.07" x2="884.26" y2="751.15"/><line class="cls-12" x1="880.92" y1="849.6" x2="811.76" y2="747.6"/></g><g id="History"><line class="cls-11" x1="1106.89" y1="980.07" x2="1410.56" y2="1002.04"/><line class="cls-11" x1="1106.89" y1="959.14" x2="1338.25" y2="942.4"/><line class="cls-11" x1="1091.58" y1="904.02" x2="1298.46" y2="799.08"/><line class="cls-11" x1="959.66" y1="824.65" x2="955.48" y2="592.71"/><line class="cls-11" x1="876.64" y1="852.62" x2="696.79" y2="606.95"/><line class="cls-11" x1="823.31" y1="1010.91" x2="624.57" y2="1069.97"/><line class="cls-11" x1="868.42" y1="1080.11" x2="718.25" y2="1256.91"/><line class="cls-11" x1="1067.54" y1="1069.31" x2="1235.95" y2="1228.84"/><line class="cls-11" x1="1083.73" y1="1048.79" x2="1278.05" y2="1175.48"/></g><g id="Skit"><line class="cls-10" x1="819.66" y1="995.64" x2="791.13" y2="1000.85"/><line class="cls-10" x1="1107.17" y1="964.37" x2="1266.55" y2="958.61"/><line class="cls-10" x1="1103.87" y1="938.44" x2="1153.43" y2="927.53"/><line class="cls-10" x1="1101.26" y1="928.3" x2="1149.9" y2="913.85"/><line class="cls-10" x1="1071.07" y1="873.77" x2="1217.93" y2="744.38"/><line class="cls-10" x1="1063.87" y1="866.17" x2="1124.82" y2="804.1"/><line class="cls-10" x1="1052.09" y1="855.79" x2="1375.4" y2="446.05"/><line class="cls-10" x1="1047.92" y1="852.62" x2="1099.31" y2="782.43"/><line class="cls-10" x1="1030.19" y1="841.51" x2="1070.94" y2="764.66"/><line class="cls-10" x1="1020.77" y1="836.94" x2="1055.87" y2="757.35"/><line class="cls-10" x1="990.89" y1="827.47" x2="1050.96" y2="528.99"/><line class="cls-10" x1="985.74" y1="826.53" x2="991.6" y2="790.76"/><line class="cls-10" x1="975.35" y1="825.21" x2="983.85" y2="731.36"/><line class="cls-10" x1="970.13" y1="824.84" x2="974.84" y2="737.97"/><line class="cls-10" x1="944.01" y1="825.78" x2="923.9" y2="667.57"/><line class="cls-10" x1="908.62" y1="834.92" x2="889.84" y2="787.78"/><line class="cls-10" x1="903.79" y1="836.94" x2="883.32" y2="790.51"/><line class="cls-10" x1="899.04" y1="839.14" x2="876.9" y2="793.48"/><line class="cls-10" x1="889.79" y1="844.05" x2="864.42" y2="800.1"/><line class="cls-10" x1="872.47" y1="855.79" x2="818.59" y2="787.5"/><line class="cls-10" x1="868.42" y1="859.11" x2="812.11" y2="792.8"/><line class="cls-10" x1="860.69" y1="866.17" x2="791.61" y2="795.83"/><line class="cls-10" x1="826.65" y1="918.38" x2="779.18" y2="900.45"/><line class="cls-10" x1="824.89" y1="923.31" x2="742.45" y2="895.54"/><line class="cls-10" x1="820.69" y1="938.44" x2="735.73" y2="919.74"/><line class="cls-10" x1="819.66" y1="943.57" x2="734.08" y2="927.95"/><line class="cls-10" x1="818.81" y1="948.74" x2="732.73" y2="936.22"/><line class="cls-10" x1="817.39" y1="964.37" x2="730.46" y2="961.23"/><line class="cls-10" x1="817.39" y1="974.84" x2="730.46" y2="977.98"/><line class="cls-10" x1="818.15" y1="985.28" x2="731.67" y2="994.69"/><line class="cls-10" x1="1106.41" y1="985.28" x2="1264.96" y2="1002.52"/><line class="cls-10" x1="826.65" y1="1020.83" x2="609.64" y2="1102.79"/><line class="cls-10" x1="828.59" y1="1025.69" x2="748.37" y2="1059.34"/><line class="cls-10" x1="853.49" y1="1065.44" x2="815.42" y2="1098.99"/><line class="cls-10" x1="860.69" y1="1073.04" x2="825.14" y2="1109.25"/><line class="cls-10" x1="885.3" y1="1092.46" x2="839.12" y2="1166.18"/><line class="cls-10" x1="908.62" y1="1104.29" x2="876.42" y2="1185.1"/><line class="cls-10" x1="918.48" y1="1107.81" x2="870.29" y2="1259.84"/><line class="cls-10" x1="928.56" y1="1110.61" x2="891.47" y2="1265.72"/><line class="cls-10" x1="933.68" y1="1111.74" x2="902.21" y2="1268.08"/><line class="cls-10" x1="949.21" y1="1114" x2="934.83" y2="1272.83"/><line class="cls-10" x1="959.66" y1="1114.56" x2="958.09" y2="1201.54"/><line class="cls-10" x1="964.9" y1="1114.56" x2="966.47" y2="1201.54"/><line class="cls-10" x1="975.35" y1="1114" x2="983.19" y2="1200.63"/><line class="cls-10" x1="996" y1="1110.61" x2="1007.8" y2="1159.96"/><line class="cls-10" x1="1001.07" y1="1109.3" x2="1014.64" y2="1158.2"/><line class="cls-10" x1="1060.07" y1="1076.65" x2="1240.98" y2="1274.67"/><line class="cls-10" x1="1102.66" y1="1005.86" x2="1186.88" y2="1027.62"/><line class="cls-10" x1="1103.87" y1="1000.77" x2="1259.63" y2="1035.06"/><line class="cls-10" x1="1105.75" y1="990.47" x2="1191.84" y2="1003"/><line class="cls-10" x1="1107.17" y1="974.84" x2="1194.1" y2="977.98"/></g><g id="Popup"><line class="cls-9" x1="1104.91" y1="943.57" x2="1119.17" y2="940.97"/><line class="cls-9" x1="1086.51" y1="894.86" x2="1098.93" y2="887.38"/><line class="cls-9" x1="1025.52" y1="839.14" x2="1031.85" y2="826.1"/><line class="cls-9" x1="933.68" y1="827.47" x2="930.82" y2="813.26"/><line class="cls-9" x1="840.83" y1="1048.79" x2="828.69" y2="1056.71"/><line class="cls-9" x1="843.77" y1="1053.12" x2="831.92" y2="1061.47"/><line class="cls-9" x1="857.02" y1="1069.31" x2="846.5" y2="1079.28"/><line class="cls-9" x1="980.56" y1="1113.43" x2="982.38" y2="1127.81"/><line class="cls-9" x1="1034.77" y1="1095.16" x2="1042.02" y2="1107.72"/><line class="cls-9" x1="1107.26" y1="969.61" x2="1121.76" y2="969.61"/></g><g id="Layer_12" data-name="Layer 12"><text class="cls-18" transform="translate(1629.2 1553.06)">Popup</text><text class="cls-18" transform="translate(1629.2 1577.41)">skit</text><text class="cls-18" transform="translate(1629.2 1601.77)">histo<tspan class="cls-19" x="41.83" y="0">r</tspan><tspan x="51.24" y="0">y</tspan></text><text class="cls-18" transform="translate(1629.2 1626.12)">trailer</text><text class="cls-18" transform="translate(1629.2 1650.47)">info</text><text class="cls-18" transform="translate(1629.2 1674.83)">tutorial</text><text class="cls-18" transform="translate(1629.2 1699.18)">testimonial</text><text class="cls-18" transform="translate(1629.2 1723.53)">jingle</text><text class="cls-20" transform="translate(930.71 887.62) rotate(-18.46)">s</text><text class="cls-20" transform="translate(937.92 885.18) rotate(-13.22)">k</text><text class="cls-20" transform="matrix(0.99, -0.17, 0.17, 0.99, 946.16, 883.33)">i</text><text class="cls-20" transform="matrix(0.99, -0.11, 0.11, 0.99, 948.63, 882.83)">p</text><text class="cls-20" transform="translate(956.08 882) rotate(-1.47)">p</text><text class="cls-20" transform="translate(963.3 881.75) rotate(3.66)">a</text><text class="cls-20" transform="translate(972.3 882.34) rotate(9.13)">b</text><text class="cls-20" transform="matrix(0.97, 0.24, -0.24, 0.97, 980.03, 883.59)">l</text><text class="cls-20" transform="translate(986.72 885.23) rotate(18.61)">e</text><text class="cls-21" transform="translate(937.13 913.6) rotate(-18.94)">m</text><text class="cls-21" transform="translate(947.42 910.29) rotate(-12.71)">i</text><text class="cls-21" transform="matrix(0.99, -0.13, 0.13, 0.99, 949.79, 909.61)">d</text><text class="cls-21" transform="translate(957.93 908.61) rotate(-2.43)"> </text><text class="cls-21" transform="matrix(1, 0.05, -0.05, 1, 961.03, 908.35)">r</text><text class="cls-21" transform="matrix(0.98, 0.18, -0.18, 0.98, 969.1, 908.71)">o</text><text class="cls-21" transform="matrix(0.95, 0.3, -0.3, 0.95, 976.98, 910.15)">l</text><text class="cls-21" transform="translate(983.66 912.2) rotate(23.93)">l</text><text class="cls-22" transform="matrix(1, -0.03, 0.03, 1, 936.61, 276.76)">0</text><text class="cls-22" transform="translate(945.7 276.49) rotate(-1.24)">:</text><text class="cls-22" transform="translate(948.68 276.42) rotate(-0.74)">0</text><text class="cls-22" transform="matrix(1, 0.01, -0.01, 1, 957.78, 276.26)">3</text><text class="cls-22" transform="translate(966.81 276.31) rotate(0.5)">:</text><text class="cls-22" transform="translate(969.77 276.32) rotate(0.99)">3</text><text class="cls-22" transform="translate(978.78 276.48) rotate(1.73)">0</text><text class="cls-22" transform="matrix(1, -0.03, 0.03, 1, 936.6, 352.17)">0</text><text class="cls-22" transform="translate(945.69 351.88) rotate(-1.39)">:</text><text class="cls-22" transform="translate(948.67 351.79) rotate(-0.83)">0</text><text class="cls-22" transform="translate(957.78 351.62) rotate(0.45)">3</text><text class="cls-22" transform="translate(966.79 351.67) rotate(0.55)">:</text><text class="cls-22" transform="translate(969.75 351.69) rotate(1.11)">0</text><text class="cls-22" transform="matrix(1, 0.03, -0.03, 1, 978.83, 351.86)">0</text><text class="cls-23" transform="matrix(1, -0.04, 0.04, 1, 936.54, 425.03)">0</text><text class="cls-23" transform="translate(945.69 424.7) rotate(-1.56)">:</text><text class="cls-23" transform="translate(948.67 424.6) rotate(-0.93)">0</text><text class="cls-23" transform="translate(957.71 424.52) rotate(-0.93)">2</text><text class="cls-23" transform="translate(966.8 424.46) rotate(0.93)">:</text><text class="cls-23" transform="translate(969.79 424.48) rotate(1.24)">3</text><text class="cls-23" transform="matrix(1, 0.04, -0.04, 1, 978.85, 424.68)">0</text><text class="cls-24" transform="translate(936.34 497.21) rotate(-2.54)">0</text><text class="cls-24" transform="translate(945.54 496.82) rotate(-1.81)">:</text><text class="cls-24" transform="translate(948.54 496.71) rotate(-1.08)">0</text><text class="cls-24" transform="translate(957.7 496.46) rotate(0.93)">2<tspan x="9.08" y="-0.06">:</tspan></text><text class="cls-24" transform="translate(969.79 496.57) rotate(1.44)">0</text><text class="cls-24" transform="translate(978.97 496.8) rotate(2.54)">0</text><text class="cls-25" transform="matrix(1, -0.05, 0.05, 1, 937.32, 569.8)">0</text><text class="cls-25" transform="matrix(1, -0.03, 0.03, 1, 946.61, 569.36)">:</text><text class="cls-25" transform="translate(949.61 569.23) rotate(-1.12)">0</text><text class="cls-25" transform="translate(958.79 569.12) rotate(-0.93)">1</text><text class="cls-25" transform="translate(965.68 569.07) rotate(0.93)">:</text><text class="cls-25" transform="matrix(1, 0.03, -0.03, 1, 968.71, 569.08)">3</text><text class="cls-25" transform="matrix(1, 0.05, -0.05, 1, 977.91, 569.33)">0</text><text class="cls-26" transform="matrix(1, -0.06, 0.06, 1, 936.92, 641.31)">0</text><text class="cls-26" transform="translate(946.31 640.76) rotate(-2.47)">:</text><text class="cls-26" transform="translate(949.36 640.6) rotate(-1.39)">0</text><text class="cls-26" transform="matrix(1, 0.02, -0.02, 1, 958.77, 640.32)">1<tspan x="6.93" y="-0.04">:</tspan></text><text class="cls-26" transform="translate(968.77 640.41) rotate(1.92)">0</text><text class="cls-26" transform="translate(978.15 640.72) rotate(3.54)">0</text><text class="cls-27" transform="translate(935.24 714.78) rotate(-4.91)">0</text><text class="cls-27" transform="matrix(1, -0.06, 0.06, 1, 944.82, 713.99)">:</text><text class="cls-27" transform="translate(947.88 713.77) rotate(-2.1)">0</text><text class="cls-27" transform="translate(957.45 713.34) rotate(0.93)">0</text><text class="cls-27" transform="translate(967.04 713.45) rotate(1.39)">:</text><text class="cls-27" transform="translate(970.14 713.49) rotate(2.79)">3</text><text class="cls-27" transform="translate(979.59 713.94) rotate(4.89)">0</text></g></svg>